<?xml version="1.0" encoding="UTF-8" standalone="no"?><svg xmlns="http://www.w3.org/2000/svg" xmlns:xlink="http://www.w3.org/1999/xlink" contentScriptType="application/ecmascript" contentStyleType="text/css" height="356px" preserveAspectRatio="none" style="width:370px;height:356px;" version="1.1" viewBox="0 0 370 356" width="370px" zoomAndPan="magnify"><defs><filter height="300%" id="f1ew26ds46920e" width="300%" x="-1" y="-1"><feGaussianBlur result="blurOut" stdDeviation="2.0"/><feColorMatrix in="blurOut" result="blurOut2" type="matrix" values="0 0 0 0 0 0 0 0 0 0 0 0 0 0 0 0 0 0 .4 0"/><feOffset dx="4.0" dy="4.0" in="blurOut2" result="blurOut3"/><feBlend in="SourceGraphic" in2="blurOut3" mode="normal"/></filter></defs><g><!--MD5=[f25a32bf479afdfc8993e7f19c33878b]
class 0--><a href="http://purl.org/ejp-rd/cde/v1/shex/personShape" target="_top" title="http://purl.org/ejp-rd/cde/v1/shex/personShape" xlink:actuate="onRequest" xlink:href="http://purl.org/ejp-rd/cde/v1/shex/personShape" xlink:show="new" xlink:title="http://purl.org/ejp-rd/cde/v1/shex/personShape" xlink:type="simple"><rect codeLine="1" fill="#FEFECE" filter="url(#f1ew26ds46920e)" height="110.4141" id="0" style="stroke:#A80036;stroke-width:1.5;" width="147" x="7" y="17.5"/><ellipse cx="36.4" cy="33.5" fill="#FF7700" rx="11" ry="11" style="stroke:#A80036;stroke-width:1.0;"/><path d="M35.8844,34.0625 Q34.025,33.3594 33.3688,32.5938 Q32.7281,31.8125 32.7281,30.5 Q32.7281,28.8125 33.8063,27.8438 Q34.8844,26.875 36.7594,26.875 Q37.6188,26.875 38.4625,27.0781 Q39.3219,27.2656 40.1656,27.6563 L40.1656,30.0469 Q39.3844,29.4844 38.5563,29.2031 Q37.7438,28.9063 36.9469,28.9063 Q36.0719,28.9063 35.5875,29.2656 Q35.1188,29.625 35.1188,30.2813 Q35.1188,30.7969 35.4625,31.1406 Q35.8063,31.4688 36.9,31.875 L37.9625,32.2813 Q39.4469,32.8281 40.15,33.7344 Q40.8688,34.6406 40.8688,36.0156 Q40.8688,37.8906 39.7594,38.8125 Q38.65,39.7344 36.4,39.7344 Q35.4781,39.7344 34.5563,39.5156 Q33.6344,39.2969 32.775,38.875 L32.775,36.3438 Q33.7438,37.0313 34.6656,37.375 Q35.5875,37.7188 36.4781,37.7188 Q37.3844,37.7188 37.8844,37.3125 Q38.3844,36.8906 38.3844,36.1563 Q38.3844,35.5938 38.0406,35.1875 Q37.7125,34.7656 37.0875,34.5156 L35.8844,34.0625 Z " fill="#000000"/><text fill="#000000" font-family="sans-serif" font-size="12" lengthAdjust="spacing" textLength="83" x="53.6" y="37.6543">:personShape</text><line style="stroke:#A80036;stroke-width:1.5;" x1="8" x2="153" y1="49.5" y2="49.5"/><text fill="#000000" font-family="sans-serif" font-size="11" lengthAdjust="spacing" textLength="14" x="13" y="63.7104">IRI</text><line style="stroke:#A80036;stroke-width:1.0;" x1="8" x2="153" y1="70.3047" y2="70.3047"/></a><a href="http://www.w3.org/1999/02/22-rdf-syntax-ns#type" target="_top" title="http://www.w3.org/1999/02/22-rdf-syntax-ns#type" xlink:actuate="onRequest" xlink:href="http://www.w3.org/1999/02/22-rdf-syntax-ns#type" xlink:show="new" xlink:title="http://www.w3.org/1999/02/22-rdf-syntax-ns#type" xlink:type="simple"><text fill="#0000FF" font-family="sans-serif" font-size="11" lengthAdjust="spacing" text-decoration="underline" textLength="7" x="13" y="84.5151">a</text></a><text fill="#000000" font-family="sans-serif" font-size="11" lengthAdjust="spacing" textLength="12" x="24" y="84.5151">: [</text><a href="http://semanticscience.org/resource/SIO_000498" target="_top" title="http://semanticscience.org/resource/SIO_000498" xlink:actuate="onRequest" xlink:href="http://semanticscience.org/resource/SIO_000498" xlink:show="new" xlink:title="http://semanticscience.org/resource/SIO_000498" xlink:type="simple"><text fill="#0000FF" font-family="sans-serif" font-size="11" lengthAdjust="spacing" text-decoration="underline" textLength="87" x="40" y="84.5151">sio:SIO_000498</text></a><text fill="#000000" font-family="sans-serif" font-size="11" lengthAdjust="spacing" textLength="4" x="131" y="84.5151">]</text><line style="stroke:#A80036;stroke-width:1.0;" x1="8" x2="153" y1="91.1094" y2="91.1094"/><a href="http://www.w3.org/2000/01/rdf-schema#label" target="_top" title="http://www.w3.org/2000/01/rdf-schema#label" xlink:actuate="onRequest" xlink:href="http://www.w3.org/2000/01/rdf-schema#label" xlink:show="new" xlink:title="http://www.w3.org/2000/01/rdf-schema#label" xlink:type="simple"><text fill="#0000FF" font-family="sans-serif" font-size="11" lengthAdjust="spacing" text-decoration="underline" textLength="53" x="13" y="105.3198">rdfs:label</text></a><text fill="#000000" font-family="sans-serif" font-size="11" lengthAdjust="spacing" textLength="4" x="70" y="105.3198">:</text><a href="http://www.w3.org/2001/XMLSchema#string" target="_top" title="http://www.w3.org/2001/XMLSchema#string" xlink:actuate="onRequest" xlink:href="http://www.w3.org/2001/XMLSchema#string" xlink:show="new" xlink:title="http://www.w3.org/2001/XMLSchema#string" xlink:type="simple"><text fill="#0000FF" font-family="sans-serif" font-size="11" lengthAdjust="spacing" text-decoration="underline" textLength="56" x="78" y="105.3198">xsd:string</text></a><text fill="#000000" font-family="sans-serif" font-size="11" lengthAdjust="spacing" textLength="6" x="142" y="105.3198">?</text><line style="stroke:#A80036;stroke-width:1.0;" x1="8" x2="153" y1="111.9141" y2="111.9141"/><line style="stroke:#A80036;stroke-width:1.0;" x1="8" x2="153" y1="119.9141" y2="119.9141"/><!--MD5=[eb7362c74a3b2d1e105f05f83a44a725]
class 1--><a href="http://purl.org/ejp-rd/cde/v1/shex/personRoleShape" target="_top" title="http://purl.org/ejp-rd/cde/v1/shex/personRoleShape" xlink:actuate="onRequest" xlink:href="http://purl.org/ejp-rd/cde/v1/shex/personRoleShape" xlink:show="new" xlink:title="http://purl.org/ejp-rd/cde/v1/shex/personRoleShape" xlink:type="simple"><rect codeLine="10" fill="#FEFECE" filter="url(#f1ew26ds46920e)" height="110.4141" id="1" style="stroke:#A80036;stroke-width:1.5;" width="147" x="103" y="215"/><ellipse cx="121.15" cy="231" fill="#FF7700" rx="11" ry="11" style="stroke:#A80036;stroke-width:1.0;"/><path d="M120.6344,231.5625 Q118.775,230.8594 118.1188,230.0938 Q117.4781,229.3125 117.4781,228 Q117.4781,226.3125 118.5563,225.3438 Q119.6344,224.375 121.5094,224.375 Q122.3688,224.375 123.2125,224.5781 Q124.0719,224.7656 124.9156,225.1563 L124.9156,227.5469 Q124.1344,226.9844 123.3063,226.7031 Q122.4938,226.4063 121.6969,226.4063 Q120.8219,226.4063 120.3375,226.7656 Q119.8688,227.125 119.8688,227.7813 Q119.8688,228.2969 120.2125,228.6406 Q120.5563,228.9688 121.65,229.375 L122.7125,229.7813 Q124.1969,230.3281 124.9,231.2344 Q125.6188,232.1406 125.6188,233.5156 Q125.6188,235.3906 124.5094,236.3125 Q123.4,237.2344 121.15,237.2344 Q120.2281,237.2344 119.3063,237.0156 Q118.3844,236.7969 117.525,236.375 L117.525,233.8438 Q118.4938,234.5313 119.4156,234.875 Q120.3375,235.2188 121.2281,235.2188 Q122.1344,235.2188 122.6344,234.8125 Q123.1344,234.3906 123.1344,233.6563 Q123.1344,233.0938 122.7906,232.6875 Q122.4625,232.2656 121.8375,232.0156 L120.6344,231.5625 Z " fill="#000000"/><text fill="#000000" font-family="sans-serif" font-size="12" lengthAdjust="spacing" textLength="108" x="135.85" y="235.1543">:personRoleShape</text><line style="stroke:#A80036;stroke-width:1.5;" x1="104" x2="249" y1="247" y2="247"/><text fill="#000000" font-family="sans-serif" font-size="11" lengthAdjust="spacing" textLength="14" x="109" y="261.2104">IRI</text><line style="stroke:#A80036;stroke-width:1.0;" x1="104" x2="249" y1="267.8047" y2="267.8047"/></a><a href="http://www.w3.org/2000/01/rdf-schema#label" target="_top" title="http://www.w3.org/2000/01/rdf-schema#label" xlink:actuate="onRequest" xlink:href="http://www.w3.org/2000/01/rdf-schema#label" xlink:show="new" xlink:title="http://www.w3.org/2000/01/rdf-schema#label" xlink:type="simple"><text fill="#0000FF" font-family="sans-serif" font-size="11" lengthAdjust="spacing" text-decoration="underline" textLength="53" x="109" y="282.0151">rdfs:label</text></a><text fill="#000000" font-family="sans-serif" font-size="11" lengthAdjust="spacing" textLength="4" x="166" y="282.0151">:</text><a href="http://www.w3.org/2001/XMLSchema#string" target="_top" title="http://www.w3.org/2001/XMLSchema#string" xlink:actuate="onRequest" xlink:href="http://www.w3.org/2001/XMLSchema#string" xlink:show="new" xlink:title="http://www.w3.org/2001/XMLSchema#string" xlink:type="simple"><text fill="#0000FF" font-family="sans-serif" font-size="11" lengthAdjust="spacing" text-decoration="underline" textLength="56" x="174" y="282.0151">xsd:string</text></a><text fill="#000000" font-family="sans-serif" font-size="11" lengthAdjust="spacing" textLength="6" x="238" y="282.0151">?</text><line style="stroke:#A80036;stroke-width:1.0;" x1="104" x2="249" y1="288.6094" y2="288.6094"/><a href="http://www.w3.org/1999/02/22-rdf-syntax-ns#type" target="_top" title="http://www.w3.org/1999/02/22-rdf-syntax-ns#type" xlink:actuate="onRequest" xlink:href="http://www.w3.org/1999/02/22-rdf-syntax-ns#type" xlink:show="new" xlink:title="http://www.w3.org/1999/02/22-rdf-syntax-ns#type" xlink:type="simple"><text fill="#0000FF" font-family="sans-serif" font-size="11" lengthAdjust="spacing" text-decoration="underline" textLength="7" x="109" y="302.8198">a</text></a><text fill="#000000" font-family="sans-serif" font-size="11" lengthAdjust="spacing" textLength="12" x="120" y="302.8198">: [</text><a href="http://purl.obolibrary.org/obo/OBI_0000093" target="_top" title="http://purl.obolibrary.org/obo/OBI_0000093" xlink:actuate="onRequest" xlink:href="http://purl.obolibrary.org/obo/OBI_0000093" xlink:show="new" xlink:title="http://purl.obolibrary.org/obo/OBI_0000093" xlink:type="simple"><text fill="#0000FF" font-family="sans-serif" font-size="11" lengthAdjust="spacing" text-decoration="underline" textLength="100" x="136" y="302.8198">obo:OBI_0000093</text></a><text fill="#000000" font-family="sans-serif" font-size="11" lengthAdjust="spacing" textLength="4" x="240" y="302.8198">]</text><line style="stroke:#A80036;stroke-width:1.0;" x1="104" x2="249" y1="309.4141" y2="309.4141"/><line style="stroke:#A80036;stroke-width:1.0;" x1="104" x2="249" y1="317.4141" y2="317.4141"/><!--MD5=[49ee3c525b3ef67192d456685a6b8001]
class 2--><a href="http://purl.org/ejp-rd/cde/v1/shex/identifierShape" target="_top" title="http://purl.org/ejp-rd/cde/v1/shex/identifierShape" xlink:actuate="onRequest" xlink:href="http://purl.org/ejp-rd/cde/v1/shex/identifierShape" xlink:show="new" xlink:title="http://purl.org/ejp-rd/cde/v1/shex/identifierShape" xlink:type="simple"><rect codeLine="19" fill="#FEFECE" filter="url(#f1ew26ds46920e)" height="131.2188" id="2" style="stroke:#A80036;stroke-width:1.5;" width="167" x="189" y="7"/><ellipse cx="222" cy="23" fill="#FF7700" rx="11" ry="11" style="stroke:#A80036;stroke-width:1.0;"/><path d="M221.4844,23.5625 Q219.625,22.8594 218.9688,22.0938 Q218.3281,21.3125 218.3281,20 Q218.3281,18.3125 219.4063,17.3438 Q220.4844,16.375 222.3594,16.375 Q223.2188,16.375 224.0625,16.5781 Q224.9219,16.7656 225.7656,17.1563 L225.7656,19.5469 Q224.9844,18.9844 224.1563,18.7031 Q223.3438,18.4063 222.5469,18.4063 Q221.6719,18.4063 221.1875,18.7656 Q220.7188,19.125 220.7188,19.7813 Q220.7188,20.2969 221.0625,20.6406 Q221.4063,20.9688 222.5,21.375 L223.5625,21.7813 Q225.0469,22.3281 225.75,23.2344 Q226.4688,24.1406 226.4688,25.5156 Q226.4688,27.3906 225.3594,28.3125 Q224.25,29.2344 222,29.2344 Q221.0781,29.2344 220.1563,29.0156 Q219.2344,28.7969 218.375,28.375 L218.375,25.8438 Q219.3438,26.5313 220.2656,26.875 Q221.1875,27.2188 222.0781,27.2188 Q222.9844,27.2188 223.4844,26.8125 Q223.9844,26.3906 223.9844,25.6563 Q223.9844,25.0938 223.6406,24.6875 Q223.3125,24.2656 222.6875,24.0156 L221.4844,23.5625 Z " fill="#000000"/><text fill="#000000" font-family="sans-serif" font-size="12" lengthAdjust="spacing" textLength="95" x="240" y="27.1543">:identifierShape</text><line style="stroke:#A80036;stroke-width:1.5;" x1="190" x2="355" y1="39" y2="39"/><text fill="#000000" font-family="sans-serif" font-size="11" lengthAdjust="spacing" textLength="14" x="195" y="53.2104">IRI</text><line style="stroke:#A80036;stroke-width:1.0;" x1="190" x2="355" y1="59.8047" y2="59.8047"/></a><a href="http://www.w3.org/1999/02/22-rdf-syntax-ns#type" target="_top" title="http://www.w3.org/1999/02/22-rdf-syntax-ns#type" xlink:actuate="onRequest" xlink:href="http://www.w3.org/1999/02/22-rdf-syntax-ns#type" xlink:show="new" xlink:title="http://www.w3.org/1999/02/22-rdf-syntax-ns#type" xlink:type="simple"><text fill="#0000FF" font-family="sans-serif" font-size="11" lengthAdjust="spacing" text-decoration="underline" textLength="7" x="195" y="74.0151">a</text></a><text fill="#000000" font-family="sans-serif" font-size="11" lengthAdjust="spacing" textLength="12" x="206" y="74.0151">: [</text><a href="http://semanticscience.org/resource/SIO_000115" target="_top" title="http://semanticscience.org/resource/SIO_000115" xlink:actuate="onRequest" xlink:href="http://semanticscience.org/resource/SIO_000115" xlink:show="new" xlink:title="http://semanticscience.org/resource/SIO_000115" xlink:type="simple"><text fill="#0000FF" font-family="sans-serif" font-size="11" lengthAdjust="spacing" text-decoration="underline" textLength="87" x="222" y="74.0151">sio:SIO_000115</text></a><text fill="#000000" font-family="sans-serif" font-size="11" lengthAdjust="spacing" textLength="4" x="313" y="74.0151">]</text><line style="stroke:#A80036;stroke-width:1.0;" x1="190" x2="355" y1="80.6094" y2="80.6094"/><a href="http://www.w3.org/2000/01/rdf-schema#label" target="_top" title="http://www.w3.org/2000/01/rdf-schema#label" xlink:actuate="onRequest" xlink:href="http://www.w3.org/2000/01/rdf-schema#label" xlink:show="new" xlink:title="http://www.w3.org/2000/01/rdf-schema#label" xlink:type="simple"><text fill="#0000FF" font-family="sans-serif" font-size="11" lengthAdjust="spacing" text-decoration="underline" textLength="53" x="195" y="94.8198">rdfs:label</text></a><text fill="#000000" font-family="sans-serif" font-size="11" lengthAdjust="spacing" textLength="4" x="252" y="94.8198">:</text><a href="http://www.w3.org/2001/XMLSchema#string" target="_top" title="http://www.w3.org/2001/XMLSchema#string" xlink:actuate="onRequest" xlink:href="http://www.w3.org/2001/XMLSchema#string" xlink:show="new" xlink:title="http://www.w3.org/2001/XMLSchema#string" xlink:type="simple"><text fill="#0000FF" font-family="sans-serif" font-size="11" lengthAdjust="spacing" text-decoration="underline" textLength="56" x="260" y="94.8198">xsd:string</text></a><text fill="#000000" font-family="sans-serif" font-size="11" lengthAdjust="spacing" textLength="6" x="324" y="94.8198">?</text><line style="stroke:#A80036;stroke-width:1.0;" x1="190" x2="355" y1="101.4141" y2="101.4141"/><a href="http://semanticscience.org/resource/SIO_000300" target="_top" title="http://semanticscience.org/resource/SIO_000300" xlink:actuate="onRequest" xlink:href="http://semanticscience.org/resource/SIO_000300" xlink:show="new" xlink:title="http://semanticscience.org/resource/SIO_000300" xlink:type="simple"><text fill="#0000FF" font-family="sans-serif" font-size="11" lengthAdjust="spacing" text-decoration="underline" textLength="87" x="195" y="115.6245">sio:SIO_000300</text></a><text fill="#000000" font-family="sans-serif" font-size="11" lengthAdjust="spacing" textLength="4" x="286" y="115.6245">:</text><a href="http://www.w3.org/2001/XMLSchema#string" target="_top" title="http://www.w3.org/2001/XMLSchema#string" xlink:actuate="onRequest" xlink:href="http://www.w3.org/2001/XMLSchema#string" xlink:show="new" xlink:title="http://www.w3.org/2001/XMLSchema#string" xlink:type="simple"><text fill="#0000FF" font-family="sans-serif" font-size="11" lengthAdjust="spacing" text-decoration="underline" textLength="56" x="294" y="115.6245">xsd:string</text></a><line style="stroke:#A80036;stroke-width:1.0;" x1="190" x2="355" y1="122.2188" y2="122.2188"/><line style="stroke:#A80036;stroke-width:1.0;" x1="190" x2="355" y1="130.2188" y2="130.2188"/><!--MD5=[f66784b854ad69a06c9b9f3eda09ba3a]
link 2 to 1--><path codeLine="30" d="M240.5334,138.2646 C229.2326,161.5137 216.5922,187.5186 205.5469,210.242 " fill="none" id="2-to-1" style="stroke:#A80036;stroke-width:1.0;"/><polygon fill="#A80036" points="203.36,214.7411,210.8921,208.3954,205.5459,210.2442,203.6971,204.898,203.36,214.7411" style="stroke:#A80036;stroke-width:1.0;"/><a href="http://semanticscience.org/resource/SIO_000020" target="_top" title="http://semanticscience.org/resource/SIO_000020" xlink:actuate="onRequest" xlink:href="http://semanticscience.org/resource/SIO_000020" xlink:show="new" xlink:title="http://semanticscience.org/resource/SIO_000020" xlink:type="simple"><text fill="#0000FF" font-family="sans-serif" font-size="13" lengthAdjust="spacing" text-decoration="underline" textLength="100" x="225.5" y="181.0669">sio:SIO_000020</text></a><text fill="#000000" font-family="sans-serif" font-size="13" lengthAdjust="spacing" textLength="0" x="206.5452" y="203.749"/><!--MD5=[8e70be089d338ff985e27910a95d8139]
link 0 to 1--><path codeLine="31" d="M89.2732,127.6727 C93.5395,146.4793 99.7104,167.2298 108.5,185 C112.7416,193.5755 117.9649,202.0834 123.6157,210.215 " fill="none" id="0-to-1" style="stroke:#A80036;stroke-width:1.0;"/><polygon fill="#A80036" points="126.7955,214.692,124.8451,205.0382,123.9002,210.6156,118.3228,209.6707,126.7955,214.692" style="stroke:#A80036;stroke-width:1.0;"/><a href="http://semanticscience.org/resource/SIO_000228" target="_top" title="http://semanticscience.org/resource/SIO_000228" xlink:actuate="onRequest" xlink:href="http://semanticscience.org/resource/SIO_000228" xlink:show="new" xlink:title="http://semanticscience.org/resource/SIO_000228" xlink:type="simple"><text fill="#0000FF" font-family="sans-serif" font-size="13" lengthAdjust="spacing" text-decoration="underline" textLength="100" x="109.5" y="181.0669">sio:SIO_000228</text></a><text fill="#000000" font-family="sans-serif" font-size="13" lengthAdjust="spacing" textLength="0" x="120.494" y="204.087"/><text fill="#888888" font-family="sans-serif" font-size="10" lengthAdjust="spacing" textLength="67" x="244" y="347.6963">Generated by</text><a href="https://rdfshape.weso.es" target="_top" title="https://rdfshape.weso.es" xlink:actuate="onRequest" xlink:href="https://rdfshape.weso.es" xlink:show="new" xlink:title="https://rdfshape.weso.es" xlink:type="simple"><text fill="#0000FF" font-family="sans-serif" font-size="10" lengthAdjust="spacing" text-decoration="underline" textLength="43" x="314" y="347.6963">rdfshape</text></a><!--MD5=[bcf9c403c006690efb3c25ceb606537b]
@startuml
class ":personShape" as 0 <<(S,#FF7700)>> [[http://purl.org/ejp-rd/cde/v1/shex/personShape :personShape]] {
IRI
- -
[[http://www.w3.org/1999/02/22-rdf-syntax-ns#type a]] : [ [[http://semanticscience.org/resource/SIO_000498 sio:SIO_000498]] ]  
- -
[[http://www.w3.org/2000/01/rdf-schema#label rdfs:label]] : [[http://www.w3.org/2001/XMLSchema#string xsd:string]]  ?
- -
- -
}
class ":personRoleShape" as 1 <<(S,#FF7700)>> [[http://purl.org/ejp-rd/cde/v1/shex/personRoleShape :personRoleShape]] {
IRI
- -
[[http://www.w3.org/2000/01/rdf-schema#label rdfs:label]] : [[http://www.w3.org/2001/XMLSchema#string xsd:string]]  ?
- -
[[http://www.w3.org/1999/02/22-rdf-syntax-ns#type a]] : [ [[http://purl.obolibrary.org/obo/OBI_0000093 obo:OBI_0000093]] ]  
- -
- -
}
class ":identifierShape" as 2 <<(S,#FF7700)>> [[http://purl.org/ejp-rd/cde/v1/shex/identifierShape :identifierShape]] {
IRI
- -
[[http://www.w3.org/1999/02/22-rdf-syntax-ns#type a]] : [ [[http://semanticscience.org/resource/SIO_000115 sio:SIO_000115]] ]  
- -
[[http://www.w3.org/2000/01/rdf-schema#label rdfs:label]] : [[http://www.w3.org/2001/XMLSchema#string xsd:string]]  ?
- -
[[http://semanticscience.org/resource/SIO_000300 sio:SIO_000300]] : [[http://www.w3.org/2001/XMLSchema#string xsd:string]]   
- -
- -
}
2 - -> " " 1 : [[http://semanticscience.org/resource/SIO_000020 sio:SIO_000020]]
0 - -> " " 1 : [[http://semanticscience.org/resource/SIO_000228 sio:SIO_000228]]

right footer Generated by [[https://rdfshape.weso.es rdfshape]]
@enduml

PlantUML version 1.2021.5(Sun Apr 25 11:20:28 GMT 2021)
(GPL source distribution)
Java Runtime: OpenJDK Runtime Environment
JVM: OpenJDK 64-Bit Server VM
Default Encoding: UTF-8
Language: en
Country: US
--></g></svg>